<svg width="20" height="20" viewBox="0 0 20 20" fill="none" xmlns="http://www.w3.org/2000/svg">
<path d="M17.1014 18C15.0214 18 13.0646 17.6067 11.231 16.82C9.39743 16.0333 7.79743 14.9565 6.43103 13.5896C5.06463 12.2232 3.98463 10.6232 3.19103 8.7896C2.39743 6.956 2.0009 4.99307 2.00143 2.9008C1.9881 2.6608 2.0681 2.45067 2.24143 2.2704C2.41476 2.09013 2.6281 2 2.88143 2H6.00143C6.24143 2 6.4481 2.09013 6.62143 2.2704C6.79476 2.45067 6.88143 2.6672 6.88143 2.92C6.88143 3.50667 6.92143 4.06 7.00143 4.58C7.08143 5.1 7.2081 5.59333 7.38143 6.06C7.4481 6.20667 7.46143 6.35653 7.42143 6.5096C7.38143 6.66267 7.30143 6.80613 7.18143 6.94L5.18143 8.94C5.75476 10.1133 6.56809 11.2267 7.62143 12.28C8.67476 13.3333 9.80809 14.1733 11.0214 14.8L13.0214 12.8C13.1414 12.68 13.2814 12.6 13.4414 12.56C13.6014 12.52 13.7614 12.5333 13.9214 12.6C14.4148 12.76 14.9249 12.8835 15.4518 12.9704C15.9788 13.0573 16.522 13.1005 17.0814 13.1C17.3348 13.1 17.5516 13.1933 17.7318 13.38C17.9121 13.5667 18.002 13.7933 18.0014 14.06V17.12C18.0014 17.36 17.9148 17.5667 17.7414 17.74C17.5681 17.9133 17.3548 18 17.1014 18ZM16.4014 10C16.4014 8.21333 15.7814 6.7 14.5414 5.46C13.3014 4.22 11.7881 3.6 10.0014 3.6V2C11.1081 2 12.1481 2.21013 13.1214 2.6304C14.0948 3.05067 14.9414 3.62053 15.6614 4.34C16.3814 5.06 16.9516 5.90667 17.3718 6.88C17.7921 7.85333 18.002 8.89333 18.0014 10H16.4014ZM13.2014 10C13.2014 9.12 12.8881 8.36667 12.2614 7.74C11.6348 7.11333 10.8814 6.8 10.0014 6.8V5.2C11.3348 5.2 12.4681 5.66667 13.4014 6.6C14.3348 7.53333 14.8014 8.66667 14.8014 10H13.2014Z" fill="white"/>
</svg>
