<svg width="20" height="20" viewBox="0 0 20 20" fill="none" xmlns="http://www.w3.org/2000/svg">
<path d="M9.99866 2C8.92201 2 7.85589 2.21206 6.86119 2.62408C5.86649 3.0361 4.96268 3.64001 4.20137 4.40132C2.66383 5.93886 1.80005 8.02421 1.80005 10.1986C1.80005 13.8224 4.15305 16.8969 7.4079 17.9873C7.81783 18.0529 7.94901 17.7987 7.94901 17.5774V16.1918C5.67799 16.6837 5.19428 15.0932 5.19428 15.0932C4.81714 14.1421 4.28423 13.888 4.28423 13.888C3.53816 13.3797 4.34162 13.3961 4.34162 13.3961C5.16148 13.4535 5.59601 14.2405 5.59601 14.2405C6.30929 15.4867 7.51448 15.1178 7.98181 14.921C8.05559 14.3881 8.26876 14.0274 8.49832 13.8224C6.67823 13.6174 4.76795 12.9124 4.76795 9.78869C4.76795 8.87864 5.0795 8.14896 5.61241 7.56686C5.53042 7.36189 5.24347 6.50924 5.69439 5.40243C5.69439 5.40243 6.38308 5.18106 7.94901 6.23868C8.5967 6.05831 9.30178 5.96813 9.99866 5.96813C10.6955 5.96813 11.4006 6.05831 12.0483 6.23868C13.6143 5.18106 14.3029 5.40243 14.3029 5.40243C14.7539 6.50924 14.4669 7.36189 14.3849 7.56686C14.9178 8.14896 15.2294 8.87864 15.2294 9.78869C15.2294 12.9206 13.3109 13.6092 11.4826 13.8142C11.7778 14.0684 12.0483 14.5685 12.0483 15.3309V17.5774C12.0483 17.7987 12.1795 18.0611 12.5976 17.9873C15.8525 16.8887 18.1973 13.8224 18.1973 10.1986C18.1973 9.12196 17.9852 8.05584 17.5732 7.06114C17.1612 6.06644 16.5573 5.16263 15.796 4.40132C15.0346 3.64001 14.1308 3.0361 13.1361 2.62408C12.1414 2.21206 11.0753 2 9.99866 2Z" fill="white"/>
</svg>
